<svg xmlns="http://www.w3.org/2000/svg" xmlns:xlink="http://www.w3.org/1999/xlink" width="1080" height="1080" viewBox="0 0 1080 1080"><defs><clipPath id="b"><rect width="1080" height="1080"/></clipPath></defs><g id="a" clip-path="url(#b)"><rect width="1080" height="1080" fill="#ebebeb"/><circle cx="481" cy="481" r="481" transform="translate(59 59)" fill="#9e1031"/><path d="M481,1a487.708,487.708,0,0,0-49.078,2.478,481.215,481.215,0,0,0-47.659,7.274c-15.464,3.164-30.94,7.144-46,11.828-14.891,4.632-29.728,10.062-44.1,16.141-14.239,6.022-28.356,12.823-41.958,20.212C238.7,66.27,225.383,74.359,212.628,82.976A482.651,482.651,0,0,0,82.976,212.628C74.359,225.383,66.27,238.7,58.933,252.2c-7.39,13.6-14.19,27.72-20.212,41.958-6.079,14.371-11.509,29.209-16.141,44.1-4.684,15.059-8.663,30.536-11.828,46a481.215,481.215,0,0,0-7.274,47.659,487.214,487.214,0,0,0,0,98.157,481.215,481.215,0,0,0,7.274,47.659c3.164,15.464,7.144,30.94,11.828,46,4.632,14.891,10.062,29.728,16.141,44.1,6.022,14.239,12.823,28.356,20.212,41.958,7.337,13.506,15.426,26.822,24.043,39.576A482.651,482.651,0,0,0,212.628,879.024c12.754,8.617,26.07,16.706,39.576,24.043,13.6,7.39,27.72,14.19,41.958,20.212,14.371,6.079,29.209,11.509,44.1,16.141,15.059,4.684,30.536,8.663,46,11.828a481.215,481.215,0,0,0,47.659,7.274,487.214,487.214,0,0,0,98.157,0,481.215,481.215,0,0,0,47.659-7.274c15.464-3.164,30.94-7.144,46-11.828,14.891-4.632,29.728-10.062,44.1-16.141,14.239-6.022,28.356-12.823,41.958-20.212,13.506-7.337,26.822-15.426,39.576-24.043A482.651,482.651,0,0,0,879.024,749.372c8.617-12.754,16.706-26.07,24.043-39.576,7.39-13.6,14.19-27.72,20.212-41.958,6.079-14.371,11.509-29.209,16.141-44.1,4.684-15.059,8.663-30.536,11.828-46a481.215,481.215,0,0,0,7.274-47.659,487.214,487.214,0,0,0,0-98.157,481.215,481.215,0,0,0-7.274-47.659c-3.164-15.464-7.144-30.94-11.828-46-4.632-14.891-10.062-29.728-16.141-44.1-6.022-14.239-12.823-28.356-20.212-41.958-7.337-13.506-15.426-26.822-24.043-39.576A482.651,482.651,0,0,0,749.372,82.976C736.617,74.359,723.3,66.27,709.8,58.933c-13.6-7.39-27.72-14.19-41.958-20.212-14.371-6.079-29.209-11.509-44.1-16.141-15.059-4.684-30.536-8.663-46-11.828a481.215,481.215,0,0,0-47.659-7.274A487.708,487.708,0,0,0,481,1m0-1C746.649,0,962,215.351,962,481S746.649,962,481,962,0,746.649,0,481,215.351,0,481,0Z" transform="translate(59 59)" fill="#707070"/><ellipse cx="281.5" cy="283.5" rx="281.5" ry="283.5" transform="translate(259 257)" fill="#ebebeb"/><path d="M281.5,1a280.646,280.646,0,0,0-56.53,5.739,277.907,277.907,0,0,0-100.3,42.505A282.55,282.55,0,0,0,6.7,226.564a287.255,287.255,0,0,0,0,113.872A282.1,282.1,0,0,0,172.319,543.8a277.634,277.634,0,0,0,52.65,16.46,281.28,281.28,0,0,0,113.06,0,277.907,277.907,0,0,0,100.3-42.505A282.549,282.549,0,0,0,556.3,340.436a287.255,287.255,0,0,0,0-113.872A282.1,282.1,0,0,0,390.681,23.2a277.634,277.634,0,0,0-52.65-16.46A280.646,280.646,0,0,0,281.5,1m0-1C436.968,0,563,126.927,563,283.5S436.968,567,281.5,567,0,440.073,0,283.5,126.032,0,281.5,0Z" transform="translate(259 257)" fill="#707070"/></g></svg>